# xmcd CD database file generated by Grip 2.96
# 
# Track frame offsets:
#       150
#       11237
#       20697
#       31572
#       42100
#       57887
#       68662
#       82562
#       92250
#       102712
# 
# Disc length: 1497 seconds
# 
# Revision: 0
# Processed by: cddbd v1.4PL0 Copyright (c) Steve Scherf et al.
# Submitted via: Grip 2.96
# 
DISCID=6905d70a
DTITLE=Various Artist - Country Christmas
DYEAR=1900
DGENRE=
TTITLE0=Willie Nelson - Winter Wonderland
TTITLE1=Connie Smith - Joy To The World
TTITLE2=Charlie Rich - White Christmas
TTITLE3=Tanya Tucker - Silver Bells
TTITLE4=Johnny Cash - Silent Night
TTITLE5=Sonny James - Away In A Manger
TTITLE6=Jim Nabors - The First Noel
TTITLE7=Lynn Anderson - Soon It Will Be Christmas
TTITLE8=George Jones - Jingle Bells
TTITLE9=Tammy Wynette - One Happy Christmas
EXTD=
EXTT0=
EXTT1=
EXTT2=
EXTT3=
EXTT4=
EXTT5=
EXTT6=
EXTT7=
EXTT8=
EXTT9=
PLAYORDER=
